<svg id="图层_1" data-name="图层 1" xmlns="http://www.w3.org/2000/svg" viewBox="0 0 143.63 143.63"><defs><style>.cls-1{fill:#fff;}.cls-2{fill:#182987;}</style></defs><title>logistics5c</title><circle class="cls-1" cx="71.82" cy="71.82" r="71.82"/><path class="cls-2" d="M53.94,114.61a7.3,7.3,0,0,1,14.1,0h5.13a7.3,7.3,0,0,1,14.1,0h5.12a7.31,7.31,0,0,1,14.11,0h4.67a11.87,11.87,0,0,0-21.34-5,11.86,11.86,0,0,0-19.23,0,11.87,11.87,0,0,0-21.34,5Z" transform="translate(-8.4 -8.4)"/><path class="cls-2" d="M102,72.74V63.33a2.07,2.07,0,0,0-1.07-1.81L85.14,52.91V49.59l-4.92-3.77h0l-4.93,3.77v3.32L59.54,61.52a2.06,2.06,0,0,0-1.08,1.81v9.41L47.93,77.3,65.1,102.94H73a11.81,11.81,0,0,1,14.43,0h7.9L112.5,77.3ZM80.22,63.33,62.58,71V64.55l17.64-9.63,17.63,9.63V71Z" transform="translate(-8.4 -8.4)"/><circle class="cls-1" cx="71.82" cy="71.82" r="71.82"/><path class="cls-2" d="M113.37,71.84,81.32,51.46a.67.67,0,0,0-.12-.06L81,51.29l-.19-.06-.19,0-.21,0-.18,0-.21,0-.19,0-.2,0-.18.06-.2.11a.75.75,0,0,0-.13.06l-32,20.37a2.06,2.06,0,0,0-.63,2.85,2.06,2.06,0,0,0,2.84.63L80.22,55.64l30.94,19.67a2.06,2.06,0,1,0,2.21-3.47Z" transform="translate(-8.4 -8.4)"/><polygon class="cls-2" points="44.12 69.07 44.12 100.66 50.98 100.66 50.98 71.36 92.19 71.36 92.19 100.66 99.06 100.66 99.06 68.84 71.82 52.13 44.12 69.07"/><rect class="cls-2" x="54.19" y="78.45" width="34.8" height="4.58"/><rect class="cls-2" x="54.19" y="96.31" width="34.8" height="4.58"/><rect class="cls-2" x="54.19" y="87.38" width="34.8" height="4.58"/></svg>