<svg id="图层_1" data-name="图层 1" xmlns="http://www.w3.org/2000/svg" viewBox="0 0 143.63 143.63"><defs><style>.cls-1{fill:#fff;}.cls-2{fill:#182987;}</style></defs><title>logistics5a</title><circle class="cls-1" cx="71.82" cy="71.82" r="71.82"/><path class="cls-2" d="M118,89l-2.24-13.15a3.44,3.44,0,0,0-4-2.81l-13,2.22a3.53,3.53,0,0,0-3,3.3,3.45,3.45,0,0,0,4,3.49l5.53-.94A27.86,27.86,0,0,1,83.88,96.78V67.51h11.9a3.66,3.66,0,0,0,3.67-3.66h0a3.67,3.67,0,0,0-3.67-3.67H83.88V51.25h1a2.78,2.78,0,0,0,2.78-2.77V46.7a2.78,2.78,0,0,0-2.78-2.77H75.55a2.77,2.77,0,0,0-2.77,2.77v1.78a2.77,2.77,0,0,0,2.77,2.77h1v8.93H64.65A3.67,3.67,0,0,0,61,63.85h0a3.66,3.66,0,0,0,3.67,3.66h11.9V96.78a27.54,27.54,0,0,1-21.4-15.66l5.53.94a3.44,3.44,0,0,0,4-3.49,3.53,3.53,0,0,0-3-3.3l-13-2.22a3.44,3.44,0,0,0-4,2.81L42.48,89a3.43,3.43,0,0,0,2.81,4,2.84,2.84,0,0,0,.58,0,3.43,3.43,0,0,0,3.38-2.86L50,86a34.38,34.38,0,0,0,26.6,17.66v9.14a3.66,3.66,0,0,0,3.67,3.66h0a3.66,3.66,0,0,0,3.66-3.66v-9.15A34.81,34.81,0,0,0,110.48,86l.7,4.12A3.44,3.44,0,0,0,114.56,93a2.84,2.84,0,0,0,.58,0A3.43,3.43,0,0,0,118,89Z" transform="translate(-8.4 -8.4)"/></svg>