<svg id="图层_1" data-name="图层 1" xmlns="http://www.w3.org/2000/svg" viewBox="0 0 143.63 143.63"><defs><style>.cls-1{fill:#fff;}.cls-2{fill:#182987;}</style></defs><title>logistics5b</title><circle class="cls-1" cx="71.82" cy="71.82" r="71.82"/><path class="cls-2" d="M53.94,114.61a7.3,7.3,0,0,1,14.1,0h5.13a7.3,7.3,0,0,1,14.1,0h5.12a7.31,7.31,0,0,1,14.11,0h4.67a11.87,11.87,0,0,0-21.34-5,11.86,11.86,0,0,0-19.23,0,11.87,11.87,0,0,0-21.34,5Z" transform="translate(-8.4 -8.4)"/><path class="cls-2" d="M102,72.74V63.33a2.07,2.07,0,0,0-1.07-1.81L85.14,52.91V49.59l-4.92-3.77h0l-4.93,3.77v3.32L59.54,61.52a2.06,2.06,0,0,0-1.08,1.81v9.41L47.93,77.3,65.1,102.94H73a11.81,11.81,0,0,1,14.43,0h7.9L112.5,77.3ZM80.22,63.33,62.58,71V64.55l17.64-9.63,17.63,9.63V71Z" transform="translate(-8.4 -8.4)"/></svg>