<svg id="图层_1" data-name="图层 1" xmlns="http://www.w3.org/2000/svg" viewBox="0 0 143.86 144.21"><defs><style>.cls-1{fill:#fff;}.cls-2{fill:#182987;}</style></defs><title>logistics5d</title><circle class="cls-1" cx="72.05" cy="72.39" r="71.82"/><path class="cls-2" d="M53.94,114.61a7.3,7.3,0,0,1,14.1,0h5.13a7.3,7.3,0,0,1,14.1,0h5.12a7.31,7.31,0,0,1,14.11,0h4.67a11.87,11.87,0,0,0-21.34-5,11.86,11.86,0,0,0-19.23,0,11.87,11.87,0,0,0-21.34,5Z" transform="translate(-8.17 -7.83)"/><path class="cls-2" d="M102,72.74V63.33a2.07,2.07,0,0,0-1.07-1.81L85.14,52.91V49.59l-4.92-3.77h0l-4.93,3.77v3.32L59.54,61.52a2.06,2.06,0,0,0-1.08,1.81v9.41L47.93,77.3,65.1,102.94H73a11.81,11.81,0,0,1,14.43,0h7.9L112.5,77.3ZM80.22,63.33,62.58,71V64.55l17.64-9.63,17.63,9.63V71Z" transform="translate(-8.17 -7.83)"/><circle class="cls-1" cx="72.05" cy="72.39" r="71.82"/><path class="cls-2" d="M113.37,71.84,81.32,51.46a.67.67,0,0,0-.12-.06L81,51.29l-.19-.06-.19,0-.21,0-.18,0-.21,0-.19,0-.2,0-.18.06-.2.11a.75.75,0,0,0-.13.06l-32,20.37a2.06,2.06,0,0,0-.63,2.85,2.06,2.06,0,0,0,2.84.63L80.22,55.64l30.94,19.67a2.06,2.06,0,1,0,2.21-3.47Z" transform="translate(-8.17 -7.83)"/><polygon class="cls-2" points="44.34 69.64 44.34 101.23 51.21 101.23 51.21 71.93 92.42 71.93 92.42 101.23 99.29 101.23 99.29 69.41 72.05 52.7 44.34 69.64"/><rect class="cls-2" x="54.42" y="79.03" width="34.8" height="4.58"/><rect class="cls-2" x="54.42" y="96.88" width="34.8" height="4.58"/><rect class="cls-2" x="54.42" y="87.96" width="34.8" height="4.58"/><circle class="cls-1" cx="71.82" cy="71.82" r="71.82"/><polygon class="cls-2" points="38.16 53.27 102.04 53.27 102.04 73.42 106.16 73.42 106.16 49.15 34.04 49.15 34.04 93.34 88.07 93.34 88.07 89.22 38.16 89.22 38.16 53.27"/><rect class="cls-2" x="44.12" y="56.71" width="2.75" height="29.53"/><rect class="cls-2" x="51.9" y="56.71" width="2.75" height="29.53"/><rect class="cls-2" x="59.68" y="56.71" width="2.75" height="29.53"/><rect class="cls-2" x="67.47" y="56.71" width="2.75" height="29.53"/><rect class="cls-2" x="75.25" y="56.71" width="2.75" height="29.53"/><rect class="cls-2" x="83.04" y="56.71" width="2.75" height="29.53"/><rect class="cls-2" x="90.82" y="56.71" width="2.75" height="17.4"/><path class="cls-2" d="M113.64,91.78V84H99v18.32h14.65V94.52h4.12V91.78Zm-2.75,0h-3v2.74h3v5h-9.15V86.74h9.15Z" transform="translate(-8.17 -7.83)"/><polygon class="cls-1" points="99.75 83.95 102.72 83.95 102.72 78.91 93.57 78.91 93.57 91.73 102.72 91.73 102.72 86.7 99.75 86.7 99.75 83.95"/></svg>