<svg id="图层_1" data-name="图层 1" xmlns="http://www.w3.org/2000/svg" viewBox="0 0 69.24 47.11"><defs><style>.cls-1{fill:#fff;}</style></defs><title>email</title><path class="cls-1" d="M57.05,9.15,39.77,24.37a7.78,7.78,0,0,1-10.3,0L12.2,9.15a2.16,2.16,0,0,0-2.85,3.24l23.85,21a2.14,2.14,0,0,0,1.42.54,2.16,2.16,0,0,0,1.43-.54l23.84-21a2.15,2.15,0,1,0-2.84-3.24Zm0,0"/><path class="cls-1" d="M62.78,0H6.46A6.47,6.47,0,0,0,0,6.46V40.64a6.47,6.47,0,0,0,6.46,6.47H62.78a6.47,6.47,0,0,0,6.46-6.47V6.46A6.47,6.47,0,0,0,62.78,0Zm2.15,40.64a2.16,2.16,0,0,1-2.15,2.16H6.46a2.16,2.16,0,0,1-2.15-2.16V6.46A2.15,2.15,0,0,1,6.46,4.31H62.78a2.15,2.15,0,0,1,2.15,2.15Zm0,0"/></svg>