<?xml version="1.0" encoding="utf-8"?>
<!-- Generator: Adobe Illustrator 22.1.0, SVG Export Plug-In . SVG Version: 6.00 Build 0)  -->
<svg version="1.1" id="图层_1" xmlns="http://www.w3.org/2000/svg" xmlns:xlink="http://www.w3.org/1999/xlink" x="0px" y="0px"
	 viewBox="0 0 550 150" style="enable-background:new 0 0 550 150;" xml:space="preserve">
<style type="text/css">
	.st0{fill:#FFFFFF;}
</style>
<g>
	<path class="st0" d="M116.8,34.5v-6.3h72.8c38,2.9,33.3,52.8-28.8,62.1c11.9,9.9,23.8,19.9,35.7,29.8H132L92.4,90.3
		c57.9-5.6,81.1-52.7,35.3-55.8L116.8,34.5L116.8,34.5z M51,34.5v-6.3h46.9c38,2.9,36.2,52.8-25.9,62.1
		c11.9,9.9,23.8,19.9,35.7,29.8H66.2L26.6,90.3c65.6-3.6,85.7-55.3,35.3-55.8C61.9,34.5,51,34.5,51,34.5z"/>
	<g>
		<path class="st0" d="M328.3,29.1h28L379,64.6l22.8-35.6h28V121h-26.3V68.2l-24.4,36h-0.5l-24.2-35.7V121h-26.1L328.3,29.1
			L328.3,29.1z"/>
		<path class="st0" d="M231.4,121V29h43.8c13.7,0,23.5,2.1,29.4,6.2c5.9,4.1,8.8,10.9,8.8,20.3c0,5.6-1.2,10.3-3.6,14
			s-6.1,6.6-11.1,8.8c5.1,1.1,8.8,3.2,11.1,6.4c2.3,3.2,3.6,7.9,3.7,14c0,0,0.5,13,0.6,13.1c0.1,3.7,2,9.2,2,9.2h-29
			c-1-4-1.6-16.5-1.6-18.8c0-4.7-0.9-8.1-2.8-10c-1.9-1.9-5.1-2.9-9.7-2.9h-12.5V121L231.4,121L231.4,121z M260.4,68.5h13.4
			c4.7,0,7.9-0.6,9.7-1.9c1.8-1.3,2.7-3.5,2.7-6.6s-0.9-5.5-2.7-6.8c-1.8-1.3-5.3-1.9-10.4-1.9h-12.6L260.4,68.5L260.4,68.5z"/>
		<path class="st0" d="M519.9,79.5c-7.7-12.5-24-14.3-37-17.8c-3.9-0.9-11-2.9-11.3-8.3c-0.2-3.1,3.7-5.9,9.7-5.8
			c6.4,0.1,11.2,2.2,12.2,9l27.5,0.1c-1.3-21.2-17.8-29.9-39-29.7c-12.7,0-24.7,2.4-32.8,13.4c-5.6,7.8-6.8,18.8-2.9,27.6
			c3.1,6.6,9.8,11.4,22.8,15.1c3.6,1,7.3,1.8,11,2.7c3.7,0.9,7.4,1.9,10.6,3.8c1.6,0.9,3,1.8,3.8,3.5c0.4,1,0.6,2.1,0.4,3.1
			c-0.3,1.4-1.4,2.6-2.6,3.4c-4.5,2.9-11.3,2.9-16.2,0.8c-3-1.3-5-3.6-6-7c-0.1-0.5-0.3-1.4-0.3-1.5h-27.8
			c1.3,21.7,20.7,30.9,39.4,30.9c13.3,0,30-2.5,37.6-14.6C524.3,99.9,525.2,88,519.9,79.5L519.9,79.5z"/>
	</g>
</g>
</svg>
